<?xml version="1.0" encoding="iso-8859-1"?>
<!-- Generator: Adobe Illustrator 19.0.0, SVG Export Plug-In . SVG Version: 6.00 Build 0)  -->
<svg version="1.1" id="Capa_1" xmlns="http://www.w3.org/2000/svg" xmlns:xlink="http://www.w3.org/1999/xlink" x="0px" y="0px"
	 viewBox="0 0 399.2 399.2" style="enable-background:new 0 0 399.2 399.2;" xml:space="preserve">
<g>
	<g>
		<path d="M321.635,151.2c-2.4-1.6-6.4-1.6-8.8,0c-9.6,6.4-38.4,24-56.8,23.2c24.8-30.4,96.8-124.8,83.2-168.8V4.8
			c0-0.8-0.8-1.6-0.8-2.4c0,0-0.8,0-0.8-0.8c-0.8-0.8-0.8-0.8-1.6-0.8s-0.8,0-1.6-0.8c-0.8,0-0.8,0-1.6,0s-0.8,0-1.6,0h-0.8
			c-4.8,0.8-117.6,19.2-164,92.8c-4-8.8-7.2-22.4-0.8-37.6c1.6-3.2,0.8-6.4-1.6-8.8c-2.4-2.4-6.4-3.2-8.8-1.6
			c-1.6,0.8-144,75.2-80.8,241.6c-4.8,11.2-16.8,49.6,10.4,108c1.6,3.2,4,4.8,7.2,4.8c0.8,0,2.4,0,3.2-0.8c4-1.6,5.6-6.4,4-10.4
			c-24-49.6-16-82.4-12-92.8c1.6,0,2.4,0,4,0c49.6,0,214.4-9.6,234.4-135.2C326.435,156.8,324.835,153.6,321.635,151.2z
			 M82.435,261.6c-33.6-108.8,31.2-170.4,63.2-192.8c-1.6,25.6,13.6,44,14.4,44.8c1.6,2.4,4.8,3.2,7.2,2.4c2.4,0,4.8-2.4,6.4-4.8
			c25.6-52.8,90.4-78.4,128.8-89.6c-38.4,34.4-113.6,104-168,167.2c-3.2-14.4-6.4-35.2-1.6-48c1.6-4-0.8-8.8-4.8-10.4
			c-4-1.6-8.8,0.8-10.4,4.8c-7.2,22.4,0.8,56,4.8,68c-7.2,8.8-13.6,17.6-20,25.6c0,0.8-0.8,0.8-0.8,1.6
			C93.635,241.6,87.235,252,82.435,261.6z M92.835,279.2c4-10.4,10.4-21.6,19.2-34.4c4.8,0.8,13.6,0.8,23.2,0.8
			c20.8,0,47.2-2.4,63.2-14.4c3.2-2.4,4-8,1.6-11.2c-2.4-3.2-8-4-11.2-1.6c-15.2,11.2-45.6,12-65.6,11.2c4-5.6,8-10.4,12.8-16
			c0,0,0,0,0.8-0.8c58.4-71.2,154.4-158.4,188-188c-5.6,42.4-63.2,120-88,149.6c-1.6,1.6-2.4,4-1.6,6.4c0,2.4,1.6,4,3.2,5.6
			c5.6,4,12,5.6,19.2,5.6c16,0,35.2-8.8,48-16C275.235,270.4,138.435,278.4,92.835,279.2z"/>
	</g>
</g>
<g>
</g>
<g>
</g>
<g>
</g>
<g>
</g>
<g>
</g>
<g>
</g>
<g>
</g>
<g>
</g>
<g>
</g>
<g>
</g>
<g>
</g>
<g>
</g>
<g>
</g>
<g>
</g>
<g>
</g>
</svg>
