<?xml version="1.0" encoding="iso-8859-1"?>
<!-- Generator: Adobe Illustrator 19.0.0, SVG Export Plug-In . SVG Version: 6.00 Build 0)  -->
<svg version="1.1" id="Capa_1" xmlns="http://www.w3.org/2000/svg" xmlns:xlink="http://www.w3.org/1999/xlink" x="0px" y="0px"
	 viewBox="0 0 512.001 512.001" style="enable-background:new 0 0 512.001 512.001;" xml:space="preserve">
<g>
	<g>
		<path d="M371.501,89.492c-4.913-0.903-9.557,2.344-10.451,7.222l-17.857,97.873C246.501,412.295,8.547,493.694,6.148,494.493
			c-4.707,1.563-7.253,6.647-5.686,11.354C1.711,509.615,5.219,512,8.982,512c0.939,0,1.895-0.148,2.834-0.458
			c2.475-0.826,248.54-84.808,348.236-310.663c0.287-0.647,0.494-1.325,0.62-2.017l18.05-98.924
			C379.616,95.061,376.378,90.382,371.501,89.492z"/>
	</g>
</g>
<g>
	<g>
		<path d="M395.646,1.406c-1.868-1.19-4.114-1.644-6.31-1.284c-36.837,6.18-67.934,41.36-77.375,87.543
			c-9.441,46.197,5.372,90.709,36.864,110.767c1.451,0.925,3.126,1.406,4.824,1.406c0.494,0,0.988-0.045,1.482-0.121
			c36.841-6.18,67.934-41.36,77.379-87.543C441.95,65.976,427.138,21.464,395.646,1.406z M414.904,108.571
			c-7.527,36.833-31.632,66.142-59.316,72.726c-22.887-16.847-33.558-53.212-26.027-90.04c7.527-36.837,31.632-66.147,59.316-72.726
			C411.765,35.382,422.436,71.743,414.904,108.571z"/>
	</g>
</g>
<g>
	<g>
		<path d="M287.847,240.887c-8.008-51.573-40.493-92.106-80.829-100.855c-2.165-0.467-4.437-0.121-6.364,0.984
			c-35.809,20.493-54.483,68.922-46.475,120.504c8.008,51.573,40.488,92.106,80.829,100.855c0.629,0.139,1.267,0.207,1.904,0.207
			c1.554,0,3.094-0.404,4.46-1.19C277.176,340.902,295.85,292.469,287.847,240.887z M235.43,343.979
			c-31.115-8.713-56.962-43.143-63.492-85.217c-6.53-42.069,7.658-82.666,34.668-100.33c31.111,8.708,56.962,43.138,63.492,85.212
			C276.628,285.71,262.436,326.31,235.43,343.979z"/>
	</g>
</g>
<g>
	<g>
		<path d="M510.509,251.109c-22.717-34.344-72.313-49.956-123.477-38.809c-51.146,11.143-89.726,45.954-95.996,86.636
			c-0.341,2.205,0.157,4.46,1.388,6.324c17.83,26.961,52.224,42.37,90.92,42.37c10.608,0,21.549-1.163,32.552-3.562
			c51.146-11.138,89.73-45.954,96-86.636C512.238,255.228,511.739,252.973,510.509,251.109z M412.075,326.521
			c-41.742,9.09-83.281-2.524-102.643-28.299c6.809-31.466,39.698-59.275,81.43-68.365c41.737-9.09,83.272,2.52,102.643,28.295
			C486.692,289.621,453.807,317.436,412.075,326.521z"/>
	</g>
</g>
<g>
	<g>
		<path d="M333.631,454.09c-8.933-33.558-44.319-59.284-88.055-64.027c-43.722-4.725-83.829,12.818-99.791,43.668
			c-1.024,1.985-1.276,4.285-0.701,6.44c8.938,33.558,44.324,59.284,88.055,64.027c4.747,0.512,9.454,0.768,14.094,0.768
			c38.059,0,71.469-16.932,85.697-44.436C333.954,458.541,334.206,456.246,333.631,454.09z M235.071,486.342
			c-34.268-3.719-63.084-22.986-71.595-47.423c13.586-22.047,45.869-34.686,80.159-30.989c34.273,3.719,63.084,22.986,71.595,47.423
			C301.653,477.4,269.343,490.038,235.071,486.342z"/>
	</g>
</g>
<g>
	<g>
		<path d="M224.22,246.613c-2.533-4.258-8.048-5.659-12.31-3.13c-4.262,2.533-5.663,8.048-3.13,12.31
			c0.229,0.382,22.649,38.872,19.802,100.666c-0.229,4.958,3.606,9.158,8.56,9.387c0.144,0.005,0.283,0.009,0.422,0.009
			c4.77,0,8.744-3.755,8.964-8.569C249.618,290.169,225.257,248.36,224.22,246.613z"/>
	</g>
</g>
<g>
	<g>
		<path d="M405.293,274.868c-1.837-4.604-7.065-6.872-11.668-5.017c-0.436,0.171-44.113,17.345-95.919,17.345
			c-4.958,0-8.982,4.024-8.982,8.982s4.024,8.982,8.982,8.982c55.22,0,100.666-17.866,102.571-18.625
			C404.884,284.695,407.13,279.471,405.293,274.868z"/>
	</g>
</g>
<g>
</g>
<g>
</g>
<g>
</g>
<g>
</g>
<g>
</g>
<g>
</g>
<g>
</g>
<g>
</g>
<g>
</g>
<g>
</g>
<g>
</g>
<g>
</g>
<g>
</g>
<g>
</g>
<g>
</g>
</svg>
