<svg height="512" viewBox="0 0 128 128" width="512" xmlns="http://www.w3.org/2000/svg"><g><path d="m101.538 61.255a72.373 72.373 0 0 0 -2.631-16.042 1.754 1.754 0 0 0 -3.349 0c-.071.223-1.831 5.473-11.08 7.169-10.429 1.918-21.885 9.136-22.395 20.475a17.97 17.97 0 0 0 3.477 11.4c-.137.087-.278.179-.414.265-7.447 4.765-13.33 8.528-15.605 17.2a1.75 1.75 0 1 0 3.385.888c1.928-7.347 7.036-10.615 14.106-15.137l.874-.561a18.876 18.876 0 0 0 4.5 3.1 18.086 18.086 0 0 0 8.04 1.907 19.411 19.411 0 0 0 12.5-4.788c6.173-5.183 9.143-14.131 8.592-25.876zm-35.958 11.76c.42-9.428 10.42-15.515 19.529-17.188a21.67 21.67 0 0 0 9.269-3.793c-1.5 5.089-4.974 12.419-13.027 20.2-.919.887-1.824 1.706-2.723 2.494a19.121 19.121 0 0 1 -1.153-6.615 1.75 1.75 0 0 0 -3.483-.35c-.312 3.109 1 7.288 1.755 9.371-2.516 2-4.939 3.694-7.244 5.211a14.471 14.471 0 0 1 -2.923-9.33zm25.12 11.438c-5.016 4.215-11.276 5.12-16.743 2.421a15.328 15.328 0 0 1 -3-1.949 87.128 87.128 0 0 0 12.826-10.171c1.057-1.021 2.017-2.033 2.932-3.039a13.772 13.772 0 0 0 3.725.565 7.317 7.317 0 0 0 4.151-1.136 1.75 1.75 0 0 0 -1.966-2.9 4.951 4.951 0 0 1 -3.312.436 47.336 47.336 0 0 0 7.994-14.318c1.387 8.938 1.885 22.953-6.607 30.091z"/><path d="m65.917 55.143a17.97 17.97 0 0 0 -3.477-11.4c.137-.087.278-.179.414-.265 7.447-4.765 13.33-8.528 15.605-17.2a1.75 1.75 0 1 0 -3.385-.888c-1.928 7.35-7.036 10.618-14.106 15.14l-.874.561a18.876 18.876 0 0 0 -4.5-3.1c-6.751-3.332-14.431-2.254-20.543 2.881-6.17 5.18-9.14 14.128-8.589 25.873a72.373 72.373 0 0 0 2.631 16.042 1.746 1.746 0 0 0 1.668 1.23h.009a1.764 1.764 0 0 0 1.672-1.233c.071-.223 1.831-5.473 11.08-7.169 10.429-1.915 21.885-9.133 22.395-20.472zm-28.617-11.596a15.975 15.975 0 0 1 10.277-3.947 14.556 14.556 0 0 1 6.469 1.531 15.328 15.328 0 0 1 3 1.949 87.128 87.128 0 0 0 -12.829 10.166c-1.056 1.02-2.016 2.032-2.931 3.038-1.825-.526-5.314-1.168-7.877.572a1.75 1.75 0 1 0 1.966 2.9 4.952 4.952 0 0 1 3.312-.435 47.309 47.309 0 0 0 -7.994 14.317c-1.387-8.938-1.885-22.953 6.607-30.091zm5.588 28.626a21.67 21.67 0 0 0 -9.269 3.793 44.218 44.218 0 0 1 9.542-16.551c1.055-1.2 2.21-2.421 3.483-3.652.919-.887 1.824-1.706 2.723-2.494a19.121 19.121 0 0 1 1.153 6.615 1.75 1.75 0 0 0 3.483.35c.312-3.109-1-7.288-1.755-9.371 2.516-2 4.939-3.694 7.244-5.211a14.471 14.471 0 0 1 2.923 9.334c-.415 9.427-10.415 15.514-19.524 17.187z"/></g></svg>