<?xml version="1.0" encoding="iso-8859-1"?>
<!-- Generator: Adobe Illustrator 19.0.0, SVG Export Plug-In . SVG Version: 6.00 Build 0)  -->
<svg version="1.1" id="Capa_1" xmlns="http://www.w3.org/2000/svg" xmlns:xlink="http://www.w3.org/1999/xlink" x="0px" y="0px"
	 viewBox="0 0 420 420" style="enable-background:new 0 0 420 420;" xml:space="preserve">
<g>
	<g>
		<path d="M387.128,130.4c-3.2-2.4-8-1.6-10.4,1.6c-14.4,17.6-37.6,21.6-54.4,21.6c-14.4,0-25.6-2.4-25.6-2.4s-4.5-0.8-6.4-4
			c-8.8-14.4-1.6-56.8,4.8-80c0.8-2.4,0-4.8-1.6-7.2c-1.6-2.4-4-3.1-6.4-3.2c-40.8-1.7-63-30.8-70.4-51.2c-1.6-4.3-4.1-5.6-6.4-5.6
			c-3.2,0-6,1.8-7.2,4.8c0,0.8-22.4,51.2-70.4,51.2c-2.4,0-4.8,0.8-6.4,3.2c-1.6,2.4-1.6,4.8-1.6,7.2c6.4,24,14.4,66.4,4.8,80
			c-1.6,2.4-3.2,3.2-5.6,4h-0.8c0,0-11.2,2.4-25.6,2.4c-16.8,0-40-4-54.4-21.6c-2.4-3.2-7.2-4-10.4-1.6c-3.2,2.4-4.8,6.4-3.2,10.4
			c0.8,0.8,32.8,67.2,6.4,104c-1.6,2.4-1.6,4.8-0.8,8c0.8,2.4,3.2,4.8,6.4,4.8c0,0,33.6,6.4,43.2,27.2c4.8,10.4,2.4,24-6.4,39.2
			c-1.6,2.4-1.6,6.4,0,8.8c1.6,2.4,4.8,4,8,3.2c0,0,4-0.8,9.6-0.8c16,0,36.8,4.8,43.2,26.4c0.8,3.2,4,5.6,7.2,5.6c4,0,6.4-2.4,8-5.6
			c0.8-1.6,13.6-37.6,48-43.2V412c0,4.8,3.2,8,8,8s8-3.2,8-8v-94.4c34.4,6.4,47.2,41.6,48,43.2c0.8,3.2,4,5.6,7.2,5.6
			s6.4-2.4,7.2-5.6c7.2-21.6,28-26.4,43.2-26.4c5.6,0,9.6,0.8,9.6,0.8c3.2,0.8,6.4-0.8,8-3.2c1.6-2.4,1.6-5.6,0-8.8
			c-8.8-16-11.2-28.8-6.4-39.2c9.6-20.8,43.2-27.2,43.2-27.2c2.4-0.8,4.8-2.4,6.4-4.8c0.8-2.4,0.8-5.6-0.8-8
			c-26.4-36,5.6-102.4,6.4-103.2C391.928,136.8,391.128,132.8,387.128,130.4z M366.327,243.2c-13.6,4-35.2,13.6-44,32.8
			c-5.6,12-5.6,26.4,0.8,41.6c-21.6,0.8-38.4,8.8-48,22.4c-8.8-14.4-26.4-35.2-56-39.2v-33.6l74.4-35.2c4-1.6,5.6-6.4,4-10.4
			c-2.4-4-7.2-5.6-11.2-4l-15.2,7.2l8.8-24c1.6-4-0.8-8.8-4.8-10.4c-4-1.6-8.8,0.8-10.4,4.8l-14.4,39.2l-32,15.2V111.2
			c0-4.8-3.2-8-8-8s-8,3.2-8,8v122.4l-32-15.2l-14.4-39.2c-1.6-4-6.4-6.4-10.4-4.8s-6.4,6.4-4.8,10.4l8.8,24l-15.2-7.2
			c-4-1.6-8.8,0-10.4,4c-1.6,4,0,8.8,4,10.4l74.4,35.2v49.6c-29.6,4-47.2,24.8-56,39.2c-10.4-13.6-27.2-21.6-48-22.4
			c6.4-15.2,6.4-29.6,0.8-41.6c-8.8-19.2-31.2-28.8-44-32.8c12.8-26.4,7.2-60,0-83.2c31.2,15.2,67.2,7.2,72,5.6
			c7.2-0.8,12.8-4.8,16.8-11.2c12.8-20,5.8-63,0.2-83c35.2-4,55.8-29.4,66.2-46.2c10.4,16.8,31,41.4,66.2,46.2
			c-4.8,20-12.6,63,0.2,83c4,6.4,9.6,9.6,16.8,11.2c4.8,0.8,40.8,9.6,72.8-5.6C359.127,183.2,353.527,216,366.327,243.2z"/>
	</g>
</g>
<g>
</g>
<g>
</g>
<g>
</g>
<g>
</g>
<g>
</g>
<g>
</g>
<g>
</g>
<g>
</g>
<g>
</g>
<g>
</g>
<g>
</g>
<g>
</g>
<g>
</g>
<g>
</g>
<g>
</g>
</svg>
