<svg id="Layer_1" enable-background="new 0 0 512.03 512.03" height="512" viewBox="0 0 512.03 512.03" width="512" xmlns="http://www.w3.org/2000/svg"><path d="m506.766 161.05c-2.132-9.459-16.765-6.162-14.633 3.298 1.436 6.371 2.536 12.959 3.318 19.845-68.575 5.133-116.169 21.122-139.541 30.797 10.352-28.425 22.687-55.454 36.784-80.581 9.494-3.794 46.246-17.908 84.551-25 1.003 3.736 2.079 7.513 3.282 11.361 2.893 9.255 17.209 4.78 14.316-4.476-10.935-34.981-13.028-64.579-6.4-90.475 1.242-4.331 3.031-9.81 5.872-14.007 3.186-4.729-.072-11.36-5.756-11.69-6.841-.939-18.861 3.767-25.118 5.483-96.418 26.432-184.048 92.435-215.992 189.859-45.971-18.921-87.658-18.929-125.109-18.929-35.293 0-74.599.881-100.299-27.674-3.933-4.371-11.353-2.526-12.832 3.123-.667 2.553-16.197 63.289-5.042 130.231 1.593 9.565 16.389 7.1 14.796-2.466-1.154-6.926-1.997-13.802-2.593-20.563 30.234-17.468 61.267-10.331 66.806-8.838 20.412 13.416 44.688 25.805 72.413 36.969-32.601 1.21-77.831 8.963-124.931 35.916-.775-2.004-1.531-4.026-2.249-6.08-3.201-9.155-17.36-4.205-14.16 4.949 15.332 43.864 45.566 80.328 86.827 102.018 40.012 21.034 83.728 27.369 127.829 34.209 39.298 6.095 77.258 15.483 100.746 50.46 3.282 4.88 10.977 4.108 13.186-1.385.724-1.802 15.012-37.823 20.986-86.051 82.384-27.428 141.298-93.461 146.837-181.713 2.464-30.889 1.227-55.865-3.894-78.59zm-197.07 232.458c-7.696-14.711-16.449-28.295-26.182-40.611-2.736-7.399-20.487-59.83.635-120.184 25.887 18.92 45.227 45.2 55.84 75.414-20.528 28.985-27.892 61.471-30.293 85.381zm-100.836-101.233c-4.529-8.751-22.24-46.641-18.781-97.078 28.581 4.376 56.425 13.992 81.219 28.953-15.558 41.727-13.805 79.893-9.411 104.99-15.835-15.053-33.58-27.397-53.027-36.865zm196.058-178.489c25.099-40.039 50.247-67.099 67.086-82.865-3.582 19.458-3.01 40.573 1.768 63.877-26.606 4.978-51.996 13.017-68.854 18.988zm15.215-77.064c12.738-5.502 25.737-10.248 38.751-14.18-17.748 16.964-42.76 44.674-67.799 85.071-4.111-24.3-4.979-42.082-4.751-54.063 10.787-6.123 22.071-11.761 33.799-16.828zm-59.257 32.855c3.422-2.395 6.937-4.716 10.497-6.998.373 15.282 2.357 36.632 8.142 64.646-14.95 26.668-27.963 55.399-38.788 85.619-20.405-31.623-31.479-68.28-36.787-90.445 15.789-19.656 34.94-37.427 56.936-52.822zm-68.427 68.337c7.111 25.831 20.124 62.281 42.259 92.657-2.493 7.699-4.862 15.535-7.094 23.456-17.573-22.651-40.785-39.872-66.416-52.378 7.157-22.342 17.797-44.012 31.251-63.735zm-219.853 86.307c-23.299-18.582-35.437-35.825-41.762-48.6 12.63 7.747 26.448 11.725 41.306 13.762-2.332 12.931-1.412 25.079.456 34.838zm-54.126-39.634c7.037 13.443 19.291 30.192 40.597 47.964-12.584.171-27.964 2.541-43.686 10.168-.736-22.436 1.006-42.773 3.089-58.132zm73.854 53.806c-2.432-5.92-9.496-25.781-5.186-47.555 29.324 1.817 58.729-.355 88.021 2.506-2.902 39.498 6.083 71.557 13.396 90.32-33.411-12.249-66.302-25.758-96.231-45.271zm-55.66 98.692c43.099-24.986 84.592-32.507 112.301-34.341 28.071-1.858 47.867 1.58 51.99 2.383 20.852 9.959 39.633 23.476 56.06 40.304-11.242-1.435-26.355-2.599-44.297-2.113-35.085.949-88.008 8.679-143.278 39.645-13.345-13.02-24.292-28.341-32.776-45.878zm44.735 56.428c50.767-27.277 99.011-34.27 131.312-35.19 30.73-.876 52.946 3.421 59.922 4.989 11.108 14.242 20.857 30.292 29.113 47.908-7.695-2.976-17.629-5.989-29.69-7.992-27.874-4.628-73.143-4.534-131.369 21.635-10.8-3.711-21.711-8.278-32.634-14.02-9.609-5.051-18.496-10.834-26.654-17.33zm137.909 48.235c-17.568-2.557-36.347-5.296-55.732-10.145 46.206-17.501 82.102-17.396 105.065-13.732 22.73 3.626 37.096 11.259 41.861 14.116 6.827 18.063 11.138 34.689 13.808 47.518-28.869-26.667-66.048-32.087-105.002-37.757zm131.955-51.778c-1.028 32.397-7.357 62.145-13.019 82.809-2.906-13.189-7.382-29.615-14.227-47.468-.533-7.258-2.983-55.51 21.528-98.058 4.505 19.166 6.435 40.142 5.718 62.717zm115.807-61.997c-28.226 36.424-57.623 61.085-101.601 76.948 1.807-23.692 1.14-47.663-3.212-71.059 27.684-5.939 66.982-12.831 111.183-15.972-1.638 2.891-4.325 7.443-6.37 10.083zm28.63-89.462c-.003.043-.007.087-.009.13-1.473 23.567-6.261 44.621-14.517 63.714-48.669 2.865-92.135 10.417-122.154 16.86-4.443-17.156-11.123-33.746-20.276-48.942 3.158-12.119 6.652-24.139 10.446-35.805 5.208-2.562 18.271-8.559 38.307-14.934 23.226-7.391 60.627-16.74 109.124-20.384.539 12.002.229 24.982-.921 39.361z"/></svg>